<?xml version="1.0" ?><!DOCTYPE svg  PUBLIC '-//W3C//DTD SVG 1.1//EN'  'http://www.w3.org/Graphics/SVG/1.1/DTD/svg11.dtd'><svg enable-background="new 0 0 128 128" id="Слой_1" version="1.1" viewBox="0 0 128 128" xml:space="preserve" xmlns="http://www.w3.org/2000/svg" xmlns:xlink="http://www.w3.org/1999/xlink"><g><g><path d="M25.3,4c-4.3,0-7.7,3.5-7.7,7.7v101.6c0,4.3,3.5,7.7,7.7,7.7h85.2v-15.5V4H25.3z" fill="#72B6D3"/></g><g opacity="0.1"><path d="M33,4h-7.7c-4.3,0-7.7,3.5-7.7,7.7v101.6c0,4.3,3.5,7.7,7.7,7.7H33V4z" fill="#090C10"/></g><g><path d="M24.4,106h85.8v14.6H24.4c-3.6,0-6.6-3.3-6.6-7.3v0C17.8,109.3,20.7,106,24.4,106z" fill="#FFFFFF"/></g><g><path d="M110.5,122.1H25.3c-4.8,0-8.7-3.9-8.7-8.7V11.7c0-4.8,3.9-8.7,8.7-8.7h85.2c0.6,0,1,0.4,1,1v117.1    C111.5,121.6,111,122.1,110.5,122.1z M25.3,5c-3.7,0-6.7,3-6.7,6.7v101.6c0,3.7,3,6.7,6.7,6.7h84.2V5H25.3z" fill="#62355C"/></g><g><path d="M17.5,114.3c-0.6,0-1-0.4-1-1V11.7c0-4.8,3.9-8.7,8.7-8.7H33c0.6,0,1,0.4,1,1v101.6c0,0.6-0.4,1-1,1h-7.7    c-3.7,0-6.7,3-6.7,6.7C18.5,113.9,18.1,114.3,17.5,114.3z M25.3,5c-3.7,0-6.7,3-6.7,6.7v96c1.6-1.9,4-3.2,6.7-3.2H32V5H25.3z" fill="#62355C"/></g><g><rect fill="#F1ED7B" height="11.7" width="5.9" x="32.6" y="112.3"/></g><g><path d="M38.5,125h-5.9c-0.6,0-1-0.4-1-1v-11.7c0-0.6,0.4-1,1-1h5.9c0.6,0,1,0.4,1,1V124    C39.5,124.6,39,125,38.5,125z M33.6,123h3.9v-9.7h-3.9V123z" fill="#62355C"/></g><g><path d="M86.5,56.7H56.2c-4.3,0-7.8-3.5-7.8-7.8V35.2c0-4.3,3.5-7.8,7.8-7.8h30.3c4.3,0,7.8,3.5,7.8,7.8v13.7    C94.3,53.2,90.8,56.7,86.5,56.7z" fill="#FFFFFF"/></g><g><path d="M86.5,57.7H56.2c-4.8,0-8.8-3.9-8.8-8.8V35.2c0-4.8,3.9-8.8,8.8-8.8h30.3c4.8,0,8.8,3.9,8.8,8.8v13.7    C95.3,53.7,91.3,57.7,86.5,57.7z M56.2,28.4c-3.7,0-6.8,3-6.8,6.8v13.7c0,3.7,3,6.8,6.8,6.8h30.3c3.7,0,6.8-3,6.8-6.8V35.2    c0-3.7-3-6.8-6.8-6.8H56.2z" fill="#62355C"/></g><g><path d="M110.5,106.6H33c-0.6,0-1-0.4-1-1s0.4-1,1-1h77.5c0.6,0,1,0.4,1,1S111,106.6,110.5,106.6z" fill="#62355C"/></g></g></svg>

 <svg x="20" y="20" width="50" height="50" viewBox="0 0 50 50" xmlns="http://www.w3.org/2000/svg" enableBackground="new 0 0 50 50" fill="orange">
        <path fill-rule="evenodd" d="M2 2.5A2.5 2.5 0 014.5 0h8.75a.75.75 0 01.75.75v12.5a.75.75 0 01-.75.75h-2.5a.75.75 0 110-1.5h1.75v-2h-8a1 1 0 00-.714 1.7.75.75 0 01-1.072 1.05A2.495 2.495 0 012 11.5v-9zm10.5-1V9h-8c-.356 0-.694.074-1 .208V2.5a1 1 0 011-1h8zM5 12.25v3.25a.25.25 0 00.4.2l1.45-1.087a.25.25 0 01.3 0L8.6 15.7a.25.25 0 00.4-.2v-3.25a.25.25 0 00-.25-.25h-3.5a.25.25 0 00-.25.25z" fill="#57606a"/>
        </svg>