<svg xmlns="http://www.w3.org/2000/svg" width="495" height="195" viewBox="0 0 495 195">

    <style>
        .animationForAll {
            animation: fadeInAnimation 0.8s ease-in-out forwards;
        }

        .errorLogo {
            text-anchor: start;
            font-size: 20px;
            font-weight: 500;
            font-family: system-ui, sans-serif;
            fill: #ff475d;
            animation: fadeInAnimation 0.8s ease-in-out forwards;
        }

        .errorHeader {
            text-anchor: start;
            font-size: 30px;
            font-weight: 500;
            font-family: system-ui, sans-serif;
            fill: #ff475d;
            animation: fadeInAnimation 0.8s ease-in-out forwards;
        }

        .errorChild {
            text-anchor: start;
            font-size: 15px;
            font-weight: 500;
            font-family: system-ui, sans-serif;
            fill: #ff475d;
            animation: fadeInAnimation 0.8s ease-in-out forwards;
        }

        .errorChildList {
            text-anchor: start;
            font-size: 11px;
            font-weight: 500;
            font-family: system-ui, sans-serif;
            fill: #101626;
            animation: fadeInAnimation 0.8s ease-in-out forwards;
        }

        .linkText {
            text-anchor: start;
            font-size: 11px;
            font-weight: 500;
            font-family: system-ui, sans-serif;
            fill: #ff475d;
            animation: fadeInAnimation 0.8s ease-in-out forwards;
        }

        .linkChild {
            text-anchor: start;
            font-size: 11px;
            font-weight: 500;
            font-family: system-ui, sans-serif;
            /* fill: #ff475d; */
            animation: fadeInAnimation 0.8s ease-in-out forwards;
        }

        .linkChild:hover {
            text-decoration: underline;
            fill: blue;
        }

        .regards {
            text-anchor: start;
            font-size: 5px;
            font-weight: 500;
            font-family: system-ui, sans-serif;
            fill: silver;
        }

        .fillingAnimation {
            opacity: 0;
            animation: gradeAnimation 0.8s ease-in-out forwards;
        }

        .sideExtra {
            opacity: 0;
            text-anchor: start;
            font-size: 10px;
            font-weight: 500;
            font-family: system-ui, sans-serif;
            fill: navajowhite;
            animation: fadeInAnimation 0.8s ease-in-out forwards;
        }


        @keyframes gradeAnimation {
            from {
                opacity: 0;
                animation-delay: 300s;
            }

            to {
                opacity: 1;
            }
        }

        @keyframes fadeInAnimation {
            0% {
                opacity: 0;
            }

            25% {
                opacity: 0.2;
            }

            50% {
                opacity: 0.5;
            }

            75% {
                opacity: 0.7;
            }

            100% {
                opacity: 0.8;
            }
        }
    </style>


    <!-- Container Start -->
    <rect x="0.5" y="0.5" rx="3" height="99%" stroke="silver" width="494" fill="none" stroke-opacity="1" />
    <!-- Discurssion Start -->
    <g>
        <svg aria-hidden="true" height="16" viewBox="0 0 16 16" version="1.1" width="16" x="400" y="10"
            class="fillingAnimation">
            <path fill-rule="evenodd"
                d="M1.5 2.75a.25.25 0 01.25-.25h8.5a.25.25 0 01.25.25v5.5a.25.25 0 01-.25.25h-3.5a.75.75 0 00-.53.22L3.5 11.44V9.25a.75.75 0 00-.75-.75h-1a.25.25 0 01-.25-.25v-5.5zM1.75 1A1.75 1.75 0 000 2.75v5.5C0 9.216.784 10 1.75 10H2v1.543a1.457 1.457 0 002.487 1.03L7.061 10h3.189A1.75 1.75 0 0012 8.25v-5.5A1.75 1.75 0 0010.25 1h-8.5zM14.5 4.75a.25.25 0 00-.25-.25h-.5a.75.75 0 110-1.5h.5c.966 0 1.75.784 1.75 1.75v5.5A1.75 1.75 0 0114.25 12H14v1.543a1.457 1.457 0 01-2.487 1.03L9.22 12.28a.75.75 0 111.06-1.06l2.22 2.22v-2.19a.75.75 0 01.75-.75h1a.25.25 0 00.25-.25v-5.5z"
                fill="#57606a">
            </path>
        </svg>

        <a href="https://github.com/hirishu10/github-readme-design/discussions" target="_blank"
            rel="noopener noreferrer">
            <text class="linkChild" x="420" y="20" fill="#005656">
                Discussion
            </text>
        </a>
    </g>
    <!-- Discurssion End -->

    <!-- Inside Container -->
    <g>
        <text class="errorLogo" x="20" y="35">❌</text>
        <text class="errorHeader" x="45" y="38">Error:</text>
        <text class="errorChild" x="20" y="65">Sorry for the inconvenience!</text>
        <text class="errorChildList" x="20" y="88"> • User not authorized</text>
        <text class="errorChildList" x="20" y="108"> • Internal Server Error</text>
        <text class="errorChildList" x="20" y="128"> • Something went wrong please check the link above and try
            again</text>

        <text class="linkText" x="10" y="150">
            → Raise Issue:
        </text>
        <a href="https://github.com/hirishu10/github-readme-design/issues" target="_blank" rel="noopener noreferrer">
            <text class="linkChild" x="90" y="150" fill="#303b59">
                https://github.com/hirishu10/github-readme-design/issues
            </text>
        </a>

        <text class="linkText" x="10" y="170">
            → Contribute:
        </text>
        <a href="https://github.com/hirishu10/github-readme-design/pulls" target="_blank" rel="noopener noreferrer">
            <text class="linkChild" x="90" y="170" fill="#303b59">
                https://github.com/hirishu10/github-readme-design/pulls
            </text>
        </a>

        <text class="sideExtra" x="10" y="188">
            Please help us to improve this for everyone need Thank You!
        </text>

    </g>
    <!-- **************************************************************** -->

    <!-- Regards -->
    <g>
        <text class="regards" x="430" y="190">Github-Readme-Design</text>
    </g>
    <!-- Regards -->

</svg>